<svg width="45" height="24" viewBox="0 0 45 24" fill="none" xmlns="http://www.w3.org/2000/svg">
<rect width="45" height="24" rx="5" fill="#A93F3F"/>
<path d="M16.2555 7.63637V16.3636H14.6618L10.8649 10.8707H10.801V16.3636H8.95579V7.63637H10.5751L14.3422 13.125H14.4189V7.63637H16.2555ZM17.78 16.3636V7.63637H23.6607V9.15768H19.6252V11.2372H23.3581V12.7585H19.6252V14.8423H23.6777V16.3636H17.78ZM27.0922 16.3636L24.595 7.63637H26.6106L28.0552 13.7003H28.1277L29.7214 7.63637H31.4473L33.0368 13.7131H33.1135L34.5581 7.63637H36.5737L34.0765 16.3636H32.2782L30.6163 10.6577H30.5481L28.8904 16.3636H27.0922Z" fill="white"/>
</svg>
