<svg width="291" height="304" viewBox="0 0 291 304" fill="none" xmlns="http://www.w3.org/2000/svg">
<rect x="46.4682" y="38" width="243" height="145.355" transform="rotate(12.4212 46.4682 38)" fill="white"/>
<path d="M39.1524 32.7625C40.2228 27.5748 45.296 24.237 50.4837 25.3074V25.3074C55.6714 26.3778 59.0091 31.451 57.9387 36.6387L21.6678 212.427C20.5974 217.615 15.5242 220.953 10.3365 219.882V219.882C5.14882 218.812 1.81109 213.739 2.88148 208.551L39.1524 32.7625Z" fill="#263238"/>
<path d="M270.209 80.3931C271.279 75.2055 276.353 71.8677 281.54 72.9381V72.9381C286.728 74.0085 290.066 79.0817 288.995 84.2694L252.724 260.058C251.654 265.246 246.581 268.583 241.393 267.513V267.513C236.205 266.443 232.868 261.369 233.938 256.182L270.209 80.3931Z" fill="#263238"/>
<rect x="38" y="40.5299" width="17.9029" height="254.442" rx="8.95143" transform="rotate(-78.2847 38 40.5299)" fill="#263238"/>
<path d="M129.5 239L172.368 253L177 278.5L190 303.5H172.368H86.6317H69L85.5 278.5L92 236L129.5 239Z" fill="#181717"/>
<rect x="0.771271" y="218.633" width="40.8455" height="254.442" rx="10" transform="rotate(-78.2847 0.771271 218.633)" fill="#263238"/>
<line x1="100.128" y1="126.779" x2="121.128" y2="111.779" stroke="black" stroke-width="3"/>
<line x1="116.921" y1="129.938" x2="103.711" y2="107.768" stroke="black" stroke-width="3"/>
<line x1="181.128" y1="142.779" x2="202.128" y2="127.779" stroke="black" stroke-width="3"/>
<line x1="197.921" y1="145.938" x2="184.711" y2="123.768" stroke="black" stroke-width="3"/>
<path d="M118.758 164.073C117.104 171.06 111.843 175.795 107.006 174.651C102.169 173.506 99.5883 166.914 101.242 159.927C102.896 152.941 104.5 143 112 152C122.5 146.5 120.412 157.086 118.758 164.073Z" fill="#FE99CC"/>
<path d="M107.198 169.821L109.903 151.098L115.223 152.69L107.198 169.821Z" fill="#E35773"/>
<line x1="91.2994" y1="146.53" x2="199.299" y2="168.53" stroke="black" stroke-width="3"/>
<rect x="85.2901" width="8" height="61" rx="4" transform="rotate(11.6233 85.2901 0)" fill="#4297B8"/>
<ellipse cx="74.5" cy="70" rx="5.5" ry="6" fill="#4297B8"/>
<circle cx="170" cy="59" r="3" fill="#D9D9D9"/>
</svg>
