<svg width="143" height="56" viewBox="0 0 143 56" fill="none" xmlns="http://www.w3.org/2000/svg">
<path fill-rule="evenodd" clip-rule="evenodd" d="M5.33518 35.3456L2.29656 36.345C2.87181 39.5632 5.34283 43.2238 7.09294 44.9701C8.07995 45.955 13.5734 50.2342 15.2448 50.2928C16.742 50.3454 22.5604 45.9935 23.4892 45.114C25.0039 43.6797 27.882 39.2484 28.4421 36.3452L25.3215 35.4678C26.4061 28.3329 28.1433 31.7704 26.4934 21.1122C28.2829 19.2621 31.8219 15.8645 30.2643 11.3107C27.9763 4.62184 21.5123 9.09335 20.6683 3.22504C20.5399 2.33257 20.5649 0.875626 20.0879 0.142405C18.672 1.69887 17.4145 5.14089 18.0416 7.83951C18.7317 10.8092 22.3668 10.1404 24.2149 12.1226C24.2376 13.8719 22.5679 15.5877 20.9713 15.3921C19.0311 15.1545 18.3211 14.2355 15.2109 14.2559C12.5158 14.2735 10.9648 15.3123 9.5185 15.4071C7.89438 15.5137 6.38561 13.8151 6.41562 12.1226C7.3824 9.75452 14.716 12.017 12.281 3.40353C11.8764 1.97248 11.3898 0.851414 10.2915 0C9.79283 7.60214 9.87237 4.94174 4.63338 7.16943C-1.15114 9.62911 -1.25063 15.6499 2.84408 19.637C4.98981 21.7264 3.99755 20.9443 3.56526 24.1153C2.93508 28.7387 4.61838 31.6599 5.33518 35.3456V35.3456Z" fill="#A93F3F"/>
<path fill-rule="evenodd" clip-rule="evenodd" d="M14.0727 28.1464C12.0744 29.1554 10.7231 30.2404 8.07781 30.454C6.84719 30.5532 3.6574 29.5873 6.63416 35.2924C8.13726 38.1732 12.358 42.5971 16.8838 41.4714C20.4431 40.586 24.0217 36.4654 25.0337 32.8027C25.9902 29.342 23.1087 31.0629 20.2358 29.9839C17.9623 29.1299 16.3437 26.9996 14.0727 28.1464V28.1464Z" fill="black"/>
<path fill-rule="evenodd" clip-rule="evenodd" d="M9.74073 17.6452C11.676 17.4813 12.5516 16.5086 15.7332 16.5376C15.6565 16.6093 15.5238 16.5914 15.4812 16.7265C15.2747 17.3818 14.0748 16.6896 13.6285 18.8648C14.5661 19.9994 15.4978 19.9207 17.2793 20.1575C16.5738 20.8149 17.2984 20.3476 16.2883 20.7177L14.4223 21.1724C12.6549 21.6369 11.8964 21.408 10.3943 19.6572C10.5283 22.6764 14.237 22.9778 17.0042 22.549C20.47 22.012 21.9449 20.8316 24.4683 23.2812C19.7832 21.578 19.7863 23.6296 15.5611 23.7355C12.4679 23.813 8.98982 21.3767 6.66842 23.3585L6.36509 22.8523C6.33027 22.8046 6.25185 22.6741 6.20812 22.6185C5.67377 21.9388 6.44195 22.3119 5.47971 21.8919C4.25744 23.3155 4.0454 27.7144 5.10517 29.5513C5.89246 27.57 4.78017 25.1315 7.54914 23.9118C10.1297 22.7752 12.5759 24.554 15.2191 24.5791C17.8558 24.604 20.4912 22.8504 22.9449 23.8362C25.8318 24.9961 24.822 27.9704 25.7063 29.5394C27.0351 26.051 25.5002 21.4223 25.1425 22.0754L23.5227 21.4429C21.4233 20.2263 21.1937 18.1641 20.684 16.4478C18.1596 15.5612 10.1834 14.0037 9.74073 17.6452V17.6452Z" fill="black"/>
<path fill-rule="evenodd" clip-rule="evenodd" d="M6.80835 31.7726C7.30957 35.7161 11.0535 39.5712 13.8514 40.115C16.1116 40.5542 16.1002 39.554 17.2597 38.5339C16.7939 37.3925 18.0738 39.8754 16.9107 38.1554C16.5162 37.5719 16.623 38.4168 16.4937 37.3515C17.2441 36.6407 18.1196 35.682 18.2568 34.2219C16.7415 32.9682 16.2853 33.2943 15.6319 31.5322L19.36 31.3309C18.8313 30.5758 17.8525 30.1047 16.8676 29.5617C13.4151 27.6583 14.3079 31.3742 6.80835 31.7726Z" fill="#A93F3F"/>
<path fill-rule="evenodd" clip-rule="evenodd" d="M12.845 45.7456C11.533 45.0268 10.1549 43.7927 9.38133 42.5707C10.3737 45.4822 12.7175 47.9024 15.2185 49.1838C17.1627 48.4537 19.849 45.944 20.5695 43.8746C19.1963 44.4919 18.3718 45.4237 17.0307 46.2719C18.3982 46.3592 21.2026 41.3797 21.5221 40.2599C20.4929 40.9656 17.9671 44.5876 15.2185 45.5668C11.9006 43.5132 11.6308 42.6519 9.22803 40.273C9.62691 42.1967 11.6887 44.5908 12.845 45.7456V45.7456Z" fill="black"/>
<path fill-rule="evenodd" clip-rule="evenodd" d="M25.5375 15.6686C23.9574 15.1582 25.2578 15.7014 24.1024 14.9867C23.8105 18.3302 22.8076 16.5491 24.093 19.3448C25.5544 19.1544 24.3798 19.4055 25.4133 18.9807C25.4319 18.973 26.4743 18.2842 26.5233 18.2236C27.6458 16.8351 25.7421 17.2073 28.5948 16.494C28.3955 15.9652 26.9374 15.5621 29.2843 13.6209C27.5086 11.8916 28.2579 9.97599 24.5119 9.09216C25.8893 10.9714 26.5744 10.3566 26.0606 12.6265C26.0472 12.6854 26.0243 12.7954 26.0116 12.8545C25.5552 14.972 25.3077 14.1837 25.5375 15.6686V15.6686Z" fill="black"/>
<path fill-rule="evenodd" clip-rule="evenodd" d="M1.44678 13.6209C3.0208 15.2248 2.12409 14.7758 2.51873 15.9989L2.70968 16.4058C3.64376 17.8438 3.8255 16.5618 3.8054 18.6627C6.78428 18.592 3.97412 19.2393 6.60338 19.2545C8.11215 16.5008 6.64429 17.96 6.62815 14.9986C6.07682 15.3422 5.92721 15.4263 5.06263 15.6477L4.32035 13.6209C4.86205 12.932 4.90963 13.5945 4.85187 12.5871C4.84904 12.538 4.81436 12.4319 4.80304 12.3808C4.27138 9.97444 3.9621 13.0308 5.62147 9.33252C4.08808 9.75617 3.60978 10.0086 2.97366 11.1172C2.78639 11.4436 2.57478 12.0526 2.37124 12.4446L1.79159 13.3042C1.75635 13.3451 1.65188 13.4364 1.62244 13.4677C1.59328 13.4987 1.50198 13.5662 1.44678 13.6209V13.6209Z" fill="black"/>
<path fill-rule="evenodd" clip-rule="evenodd" d="M22.7607 42.4786L24.2378 40.4801C24.4916 40.9877 24.3512 40.6071 24.4593 41.5259C24.5223 42.0605 24.1976 41.5158 24.498 42.4129C25.3012 40.7897 26.5956 39.2938 27.0471 36.9308L24.6024 36.4403C23.3691 37.9377 23.0663 40.5591 22.7607 42.4786Z" fill="black"/>
<path fill-rule="evenodd" clip-rule="evenodd" d="M3.7207 36.9419C3.80294 38.8693 4.80242 39.8429 5.39678 41.5123L6.11273 40.025C6.13538 39.9615 6.15307 39.8332 6.19002 39.743C6.56696 41.0076 6.23927 40.7834 7.61286 41.595C7.27993 39.218 7.22926 38.2586 6.25413 36.4762L3.7207 36.9419Z" fill="black"/>
<path fill-rule="evenodd" clip-rule="evenodd" d="M12.2255 27.4442C10.3 26.5819 9.95404 26.0222 7.05103 26.1486C7.06546 28.9398 10.5468 29.5475 12.2255 27.4442Z" fill="black"/>
<path fill-rule="evenodd" clip-rule="evenodd" d="M18.4812 27.9565C20.7448 28.7356 23.4922 28.9818 23.6726 26.205C21.4475 25.9658 19.4832 26.2789 18.4812 27.9565Z" fill="black"/>
<path d="M39.5092 44.6577V14.7961H45.6512L48.3998 29.0991V14.7961H54.1686V44.6577H48.332L45.3458 29.7269V44.6577H39.5092Z" fill="#A93F3F"/>
<path d="M56.6797 17.6465V12.5904H62.7538V17.6465H56.6797ZM56.6797 44.6577V19.2074H62.7538V44.6577H56.6797ZM65.1631 44.6577V19.2074H71.2372V22.4481C71.4634 21.4753 71.882 20.6496 72.4928 19.9709C73.1149 19.281 73.9745 18.936 75.0717 18.936C76.8363 18.936 78.1145 19.4789 78.9062 20.5648C79.7093 21.6507 80.1109 23.1381 80.1109 25.0271V44.6577H74.1216V25.6548C74.1216 25.1571 74.0198 24.699 73.8162 24.2805C73.6126 23.8507 73.2619 23.6358 72.7642 23.6358C72.3005 23.6358 71.9555 23.7998 71.7293 24.1278C71.5143 24.4445 71.3786 24.8461 71.3221 25.3325C71.2655 25.8075 71.2372 26.2826 71.2372 26.7577V44.6577H65.1631ZM83.148 17.6465V12.5904H89.2221V17.6465H83.148ZM84.4374 49.0691C83.148 49.0691 82.2883 48.9221 81.8585 48.628V44.5559C82.0621 44.6125 82.2487 44.6407 82.4184 44.6407C82.7464 44.6407 82.95 44.5276 83.0292 44.3014C83.1084 44.0752 83.148 43.7867 83.148 43.4361V19.2074H89.2221V43.2664C89.2221 45.0762 88.8601 46.4958 88.1362 47.5251C87.4236 48.5544 86.1907 49.0691 84.4374 49.0691ZM96.2633 44.9292C94.8494 44.9292 93.7692 44.6012 93.0227 43.9451C92.2874 43.2891 91.7841 42.3898 91.5126 41.2474C91.2411 40.1049 91.1054 38.8098 91.1054 37.362C91.1054 35.8123 91.2581 34.5455 91.5635 33.5614C91.8689 32.566 92.3892 31.7516 93.1245 31.1182C93.871 30.4847 94.8947 29.9475 96.1955 29.5063L99.9621 28.2168V25.6039C99.9621 24.2353 99.5153 23.5509 98.6217 23.5509C97.8073 23.5509 97.4001 24.1052 97.4001 25.2137V26.7407H91.4956C91.4843 26.6502 91.4787 26.5371 91.4787 26.4014C91.4787 26.2543 91.4787 26.0903 91.4787 25.9093C91.4787 23.3756 92.0725 21.5828 93.2602 20.5308C94.4592 19.4676 96.3538 18.936 98.9441 18.936C100.301 18.936 101.517 19.1792 102.592 19.6655C103.667 20.1406 104.515 20.8476 105.137 21.7864C105.77 22.7252 106.087 23.8846 106.087 25.2646V44.6577H100.047V41.6376C99.7528 42.7009 99.2665 43.5153 98.5878 44.0808C97.9091 44.6464 97.1343 44.9292 96.2633 44.9292ZM98.6557 40.2124C99.1534 40.2124 99.4927 40.0031 99.6737 39.5846C99.8546 39.1661 99.9451 38.7137 99.9451 38.2273V31.1351C99.1081 31.4745 98.4577 31.9043 97.994 32.4246C97.5302 32.9336 97.2983 33.6858 97.2983 34.6812V37.9558C97.2983 39.4602 97.7508 40.2124 98.6557 40.2124ZM115.283 49.0691C114.107 49.0691 113.094 49.0069 112.246 48.8825C111.409 48.7693 110.657 48.5601 109.99 48.2547C109.322 47.9493 108.655 47.5195 107.987 46.9652L110.04 43.4531C111.522 44.3353 113.004 44.7765 114.486 44.7765C115.458 44.7765 116.182 44.4654 116.657 43.8433C117.133 43.2212 117.37 42.4124 117.37 41.417V38.9229C116.884 40.6648 115.589 41.5358 113.485 41.5358C112.274 41.5358 111.296 41.2474 110.549 40.6705C109.803 40.0936 109.26 39.3132 108.921 38.3291C108.581 37.345 108.412 36.2478 108.412 35.0375V25.8924C108.412 24.5237 108.559 23.3191 108.853 22.2784C109.147 21.2265 109.661 20.4064 110.397 19.8182C111.132 19.2301 112.161 18.936 113.485 18.936C114.604 18.936 115.475 19.2187 116.098 19.7843C116.731 20.3499 117.155 21.1134 117.37 22.0748V19.2074H123.563V41.0268C123.563 43.9112 122.896 45.9698 121.561 47.2027C120.237 48.447 118.145 49.0691 115.283 49.0691ZM115.945 36.9548C116.895 36.9548 117.37 36.0951 117.37 34.3758V25.7227C117.37 25.2589 117.234 24.7839 116.963 24.2975C116.703 23.8111 116.341 23.5679 115.877 23.5679C115.289 23.5679 114.921 23.7885 114.774 24.2296C114.627 24.6595 114.554 25.1571 114.554 25.7227V34.3758C114.554 34.9866 114.627 35.5691 114.774 36.1234C114.933 36.6776 115.323 36.9548 115.945 36.9548ZM130.57 44.9292C129.156 44.9292 128.076 44.6012 127.33 43.9451C126.594 43.2891 126.091 42.3898 125.82 41.2474C125.548 40.1049 125.412 38.8098 125.412 37.362C125.412 35.8123 125.565 34.5455 125.87 33.5614C126.176 32.566 126.696 31.7516 127.431 31.1182C128.178 30.4847 129.202 29.9475 130.502 29.5063L134.269 28.2168V25.6039C134.269 24.2353 133.822 23.5509 132.929 23.5509C132.114 23.5509 131.707 24.1052 131.707 25.2137V26.7407H125.803C125.791 26.6502 125.786 26.5371 125.786 26.4014C125.786 26.2543 125.786 26.0903 125.786 25.9093C125.786 23.3756 126.379 21.5828 127.567 20.5308C128.766 19.4676 130.661 18.936 133.251 18.936C134.608 18.936 135.824 19.1792 136.899 19.6655C137.974 20.1406 138.822 20.8476 139.444 21.7864C140.077 22.7252 140.394 23.8846 140.394 25.2646V44.6577H134.354V41.6376C134.06 42.7009 133.573 43.5153 132.895 44.0808C132.216 44.6464 131.441 44.9292 130.57 44.9292ZM132.963 40.2124C133.46 40.2124 133.8 40.0031 133.981 39.5846C134.162 39.1661 134.252 38.7137 134.252 38.2273V31.1351C133.415 31.4745 132.765 31.9043 132.301 32.4246C131.837 32.9336 131.605 33.6858 131.605 34.6812V37.9558C131.605 39.4602 132.058 40.2124 132.963 40.2124Z" fill="#F2F2F2"/>
</svg>
