<svg width="113" height="220" viewBox="0 0 113 220" fill="none" xmlns="http://www.w3.org/2000/svg">
<path fill-rule="evenodd" clip-rule="evenodd" d="M25.8621 108.399L16.5432 111.464C18.3074 121.334 25.8856 132.56 31.2529 137.916C34.2799 140.936 51.1275 154.06 56.2534 154.24C60.8449 154.401 78.6889 141.054 81.5375 138.357C86.1828 133.958 95.0095 120.368 96.7273 111.465L87.157 108.774C90.4831 86.8923 95.8109 97.4346 90.7509 64.7477C96.2389 59.0735 107.092 48.6537 102.315 34.6881C95.2986 14.1744 75.4747 27.8878 72.8862 9.89065C72.4924 7.15362 72.5693 2.6854 71.1063 0.436734C66.764 5.21016 62.9074 15.7663 64.8305 24.0425C66.9472 33.15 78.0954 31.0989 83.7631 37.1781C83.8326 42.5428 78.7119 47.805 73.8156 47.2051C67.8653 46.4762 65.6878 43.658 56.1492 43.7205C47.8839 43.7744 43.1274 46.9602 38.6917 47.2511C33.7107 47.578 29.0836 42.3687 29.1756 37.1781C32.1406 29.9155 54.6316 36.8543 47.1637 10.4381C45.923 6.04927 44.4306 2.61114 41.0623 0C39.533 23.3145 39.7769 15.1555 23.7098 21.9874C5.96966 29.5309 5.66452 47.9956 18.2223 60.2234C24.8029 66.6313 21.7598 64.2328 20.4341 73.9577C18.5014 88.1369 23.6638 97.0955 25.8621 108.399Z" fill="#A93F3F"/>
<path fill-rule="evenodd" clip-rule="evenodd" d="M52.6582 86.3205C46.5299 89.4148 42.3855 92.7422 34.273 93.3973C30.4989 93.7016 20.7163 90.7393 29.8455 108.236C34.4553 117.071 47.3995 130.638 61.2795 127.186C72.1951 124.471 83.1702 111.833 86.274 100.6C89.2073 89.9869 80.3702 95.2648 71.5596 91.9556C64.587 89.3366 59.623 82.8033 52.6582 86.3205Z" fill="black"/>
<path fill-rule="evenodd" clip-rule="evenodd" d="M39.3728 54.1145C45.3079 53.6118 47.9933 50.6287 57.7507 50.7177C57.5154 50.9377 57.1086 50.8826 56.9779 51.2972C56.3446 53.3066 52.6647 51.1839 51.2959 57.8548C54.1715 61.3346 57.0287 61.0932 62.4924 61.8195C60.3288 63.8355 62.551 62.4025 59.4532 63.5372L53.7304 64.932C48.3102 66.3563 45.9838 65.6543 41.3771 60.2849C41.7882 69.5444 53.1622 70.4686 61.6485 69.1537C72.2776 67.5067 76.8009 63.8867 84.5398 71.3993C70.1713 66.1757 70.1809 72.4676 57.2228 72.7923C47.7367 73.0302 37.0699 65.5584 29.9505 71.6363L29.0203 70.084C28.9135 69.9377 28.673 69.5374 28.5388 69.3668C26.9001 67.2822 29.256 68.4266 26.3049 67.1386C22.5564 71.5044 21.9062 84.9951 25.1563 90.6284C27.5708 84.5523 24.1596 77.0739 32.6515 73.3332C40.5657 69.8474 48.0679 75.3028 56.174 75.3796C64.2605 75.456 72.3427 70.0779 79.8679 73.1014C88.7215 76.6585 85.6246 85.7804 88.3364 90.592C92.4118 79.8939 87.7044 65.6982 86.6074 67.7012L81.6399 65.7616C75.2013 62.0304 74.4972 55.706 72.934 50.4424C65.1921 47.7232 40.7302 42.9467 39.3728 54.1145Z" fill="black"/>
<path fill-rule="evenodd" clip-rule="evenodd" d="M30.3799 97.4409C31.9171 109.535 43.3992 121.358 51.9797 123.026C58.9115 124.373 58.8763 121.305 62.4325 118.177C61.0039 114.676 64.929 122.291 61.362 117.016C60.1521 115.227 60.4799 117.818 60.0831 114.551C62.3848 112.371 65.0697 109.43 65.4903 104.953C60.8432 101.108 59.4441 102.108 57.4403 96.7038L68.8738 96.0865C67.2524 93.7706 64.2505 92.3259 61.23 90.6606C50.6418 84.8232 53.3797 96.2194 30.3799 97.4409Z" fill="#A93F3F"/>
<path fill-rule="evenodd" clip-rule="evenodd" d="M48.8934 140.294C44.8697 138.09 40.6433 134.305 38.2709 130.557C41.3144 139.486 48.5023 146.909 56.1726 150.839C62.135 148.599 70.3735 140.903 72.5831 134.556C68.3718 136.449 65.8431 139.307 61.7304 141.908C65.9243 142.176 74.5248 126.905 75.5046 123.47C72.3482 125.635 64.602 136.743 56.1726 139.746C45.9971 133.448 45.1697 130.806 37.8008 123.511C39.0241 129.41 45.3472 136.753 48.8934 140.294Z" fill="black"/>
<path fill-rule="evenodd" clip-rule="evenodd" d="M87.819 48.0531C82.973 46.4878 86.9612 48.1534 83.4176 45.9616C82.5225 56.2156 79.4468 50.7533 83.3889 59.3273C87.8706 58.7434 84.2684 59.5135 87.4379 58.2108C87.4952 58.1869 90.6919 56.0745 90.8421 55.8888C94.2846 51.6306 88.4463 52.7719 97.1952 50.5844C96.584 48.9626 92.1123 47.7263 99.3098 41.7729C93.8639 36.4695 96.162 30.5947 84.6734 27.8842C88.8977 33.6473 90.9988 31.762 89.423 38.7234C89.3822 38.9039 89.3119 39.2413 89.2728 39.4227C87.8732 45.9165 87.114 43.4989 87.819 48.0531Z" fill="black"/>
<path fill-rule="evenodd" clip-rule="evenodd" d="M13.9365 41.773C18.7638 46.6918 16.0137 45.3149 17.224 49.066L17.8096 50.314C20.6743 54.7241 21.2317 50.7924 21.17 57.2354C30.3058 57.0188 21.6875 59.004 29.751 59.0504C34.3781 50.6053 29.8764 55.0805 29.827 45.9981C28.1361 47.0522 27.6773 47.31 25.0258 47.9889L22.7493 41.773C24.4106 39.6602 24.5565 41.6922 24.3794 38.6027C24.3707 38.4521 24.2643 38.1265 24.2296 37.9698C22.5991 30.59 21.6506 39.9632 26.7396 28.6213C22.037 29.9206 20.5701 30.6946 18.6192 34.0945C18.0449 35.0956 17.3959 36.9635 16.7717 38.1656L14.994 40.8019C14.8859 40.9274 14.5655 41.2073 14.4753 41.3033C14.3858 41.3984 14.1058 41.6054 13.9365 41.773Z" fill="black"/>
<path fill-rule="evenodd" clip-rule="evenodd" d="M79.3035 130.275L83.8333 124.146C84.6117 125.703 84.1811 124.535 84.5127 127.353C84.7059 128.993 83.71 127.322 84.6312 130.074C87.0948 125.095 91.0643 120.508 92.4491 113.261L84.9516 111.757C81.1693 116.349 80.2407 124.388 79.3035 130.275Z" fill="black"/>
<path fill-rule="evenodd" clip-rule="evenodd" d="M20.9106 113.295C21.1629 119.206 24.2281 122.192 26.0509 127.311L28.2466 122.75C28.3161 122.555 28.3703 122.162 28.4836 121.885C29.6396 125.763 28.6347 125.076 32.8472 127.565C31.8262 120.275 31.6708 117.333 28.6802 111.866L20.9106 113.295Z" fill="black"/>
<path fill-rule="evenodd" clip-rule="evenodd" d="M46.9934 84.1669C41.0883 81.5224 40.0273 79.8059 31.1243 80.1936C31.1685 88.7537 41.8454 90.6173 46.9934 84.1669Z" fill="black"/>
<path fill-rule="evenodd" clip-rule="evenodd" d="M66.179 85.7379C73.1212 88.1272 81.5467 88.8822 82.1002 80.3663C75.2761 79.6327 69.252 80.5929 66.179 85.7379Z" fill="black"/>
<path d="M1.44727 207.241V174.585H8.16406L11.1699 190.227V174.585H17.4785V207.241H11.0957L7.83008 190.913V207.241H1.44727Z" fill="#A93F3F"/>
<path d="M20.2246 177.702V172.173H26.8672V177.702H20.2246ZM20.2246 207.241V179.409H26.8672V207.241H20.2246ZM29.502 207.241V179.409H36.1445V182.953C36.3919 181.889 36.8496 180.986 37.5176 180.244C38.1979 179.49 39.138 179.112 40.3379 179.112C42.2676 179.112 43.6654 179.706 44.5312 180.894C45.4095 182.081 45.8486 183.708 45.8486 185.774V207.241H39.2988V186.46C39.2988 185.916 39.1875 185.415 38.9648 184.957C38.7422 184.487 38.3587 184.252 37.8145 184.252C37.3073 184.252 36.93 184.431 36.6826 184.79C36.4476 185.137 36.2992 185.576 36.2373 186.108C36.1755 186.627 36.1445 187.147 36.1445 187.666V207.241H29.502ZM49.1699 177.702V172.173H55.8125V177.702H49.1699ZM50.5801 212.066C49.1699 212.066 48.2298 211.905 47.7598 211.583V207.13C47.9824 207.192 48.1865 207.223 48.3721 207.223C48.7308 207.223 48.9535 207.099 49.04 206.852C49.1266 206.604 49.1699 206.289 49.1699 205.905V179.409H55.8125V205.72C55.8125 207.699 55.4167 209.251 54.625 210.377C53.8457 211.503 52.4974 212.066 50.5801 212.066ZM63.5127 207.538C61.9665 207.538 60.7852 207.179 59.9688 206.462C59.1647 205.745 58.6143 204.761 58.3174 203.512C58.0205 202.262 57.8721 200.846 57.8721 199.263C57.8721 197.568 58.0391 196.183 58.373 195.107C58.707 194.018 59.276 193.127 60.0801 192.435C60.8965 191.742 62.016 191.154 63.4385 190.672L67.5576 189.262V186.404C67.5576 184.908 67.069 184.159 66.0918 184.159C65.2012 184.159 64.7559 184.765 64.7559 185.978V187.648H58.2988C58.2865 187.549 58.2803 187.425 58.2803 187.276C58.2803 187.116 58.2803 186.936 58.2803 186.738C58.2803 183.968 58.9297 182.007 60.2285 180.857C61.5397 179.694 63.6117 179.112 66.4443 179.112C67.9287 179.112 69.2585 179.378 70.4336 179.91C71.6087 180.43 72.5365 181.203 73.2168 182.23C73.9095 183.256 74.2559 184.524 74.2559 186.033V207.241H67.6504V203.939C67.3288 205.101 66.7969 205.992 66.0547 206.61C65.3125 207.229 64.4652 207.538 63.5127 207.538ZM66.1289 202.38C66.6732 202.38 67.0443 202.151 67.2422 201.693C67.4401 201.236 67.5391 200.741 67.5391 200.209V192.453C66.6237 192.824 65.9124 193.294 65.4053 193.863C64.8981 194.42 64.6445 195.243 64.6445 196.331V199.912C64.6445 201.557 65.1393 202.38 66.1289 202.38ZM84.3125 212.066C83.026 212.066 81.9189 211.998 80.9912 211.861C80.0758 211.738 79.2533 211.509 78.5234 211.175C77.7936 210.841 77.0638 210.371 76.334 209.765L78.5791 205.924C80.1995 206.889 81.82 207.371 83.4404 207.371C84.5042 207.371 85.2959 207.031 85.8154 206.351C86.335 205.67 86.5947 204.786 86.5947 203.697V200.97C86.0628 202.875 84.6465 203.827 82.3457 203.827C81.0221 203.827 79.9521 203.512 79.1357 202.881C78.3193 202.25 77.7256 201.397 77.3545 200.32C76.9834 199.244 76.7979 198.044 76.7979 196.721V186.72C76.7979 185.223 76.9587 183.906 77.2803 182.768C77.6019 181.617 78.1647 180.72 78.9688 180.077C79.7728 179.434 80.8984 179.112 82.3457 179.112C83.5703 179.112 84.5228 179.422 85.2031 180.04C85.8958 180.659 86.3597 181.494 86.5947 182.545V179.409H93.3672V203.271C93.3672 206.425 92.6374 208.676 91.1777 210.025C89.7305 211.385 87.4421 212.066 84.3125 212.066ZM85.0361 198.818C86.0752 198.818 86.5947 197.877 86.5947 195.997V186.534C86.5947 186.027 86.4463 185.508 86.1494 184.976C85.8649 184.444 85.4691 184.178 84.9619 184.178C84.3187 184.178 83.9167 184.419 83.7559 184.901C83.5951 185.372 83.5146 185.916 83.5146 186.534V195.997C83.5146 196.665 83.5951 197.302 83.7559 197.908C83.929 198.514 84.3558 198.818 85.0361 198.818ZM101.03 207.538C99.484 207.538 98.3027 207.179 97.4863 206.462C96.6823 205.745 96.1318 204.761 95.835 203.512C95.5381 202.262 95.3896 200.846 95.3896 199.263C95.3896 197.568 95.5566 196.183 95.8906 195.107C96.2246 194.018 96.7936 193.127 97.5977 192.435C98.4141 191.742 99.5335 191.154 100.956 190.672L105.075 189.262V186.404C105.075 184.908 104.587 184.159 103.609 184.159C102.719 184.159 102.273 184.765 102.273 185.978V187.648H95.8164C95.804 187.549 95.7979 187.425 95.7979 187.276C95.7979 187.116 95.7979 186.936 95.7979 186.738C95.7979 183.968 96.4473 182.007 97.7461 180.857C99.0573 179.694 101.129 179.112 103.962 179.112C105.446 179.112 106.776 179.378 107.951 179.91C109.126 180.43 110.054 181.203 110.734 182.23C111.427 183.256 111.773 184.524 111.773 186.033V207.241H105.168V203.939C104.846 205.101 104.314 205.992 103.572 206.61C102.83 207.229 101.983 207.538 101.03 207.538ZM103.646 202.38C104.191 202.38 104.562 202.151 104.76 201.693C104.958 201.236 105.057 200.741 105.057 200.209V192.453C104.141 192.824 103.43 193.294 102.923 193.863C102.416 194.42 102.162 195.243 102.162 196.331V199.912C102.162 201.557 102.657 202.38 103.646 202.38Z" fill="#F2F2F2"/>
</svg>
